<svg xmlns="http://www.w3.org/2000/svg" xmlns:xlink="http://www.w3.org/1999/xlink" width="500" zoomAndPan="magnify" viewBox="0 0 375 374.999991" height="500" preserveAspectRatio="xMidYMid meet" version="1.0"><defs><g/><clipPath id="id1"><path d="M 145.40625 185.949219 L 194.660156 185.949219 L 194.660156 243.699219 L 145.40625 243.699219 Z M 145.40625 185.949219 " clip-rule="nonzero"/></clipPath></defs><g fill="#000000" fill-opacity="1"><g transform="translate(96.177816, 241.755335)"><g><path d="M 5.46875 -50.578125 L 23.109375 -50.578125 C 29.984375 -50.578125 35.082031 -49.554688 38.40625 -47.515625 C 41.738281 -45.472656 43.40625 -42.296875 43.40625 -37.984375 C 43.40625 -35.148438 42.675781 -32.726562 41.21875 -30.71875 C 39.769531 -28.707031 37.859375 -27.414062 35.484375 -26.84375 L 35.484375 -26.5 C 38.628906 -25.664062 40.90625 -24.28125 42.3125 -22.34375 C 43.71875 -20.40625 44.421875 -17.894531 44.421875 -14.8125 C 44.421875 -10.21875 42.695312 -6.597656 39.25 -3.953125 C 35.800781 -1.316406 31.097656 0 25.140625 0 L 5.46875 0 Z M 19.125 -31.171875 L 23.25 -31.171875 C 25.207031 -31.171875 26.722656 -31.570312 27.796875 -32.375 C 28.867188 -33.1875 29.40625 -34.382812 29.40625 -35.96875 C 29.40625 -38.8125 27.257812 -40.234375 22.96875 -40.234375 L 19.125 -40.234375 Z M 19.125 -21.171875 L 19.125 -10.546875 L 23.9375 -10.546875 C 28.207031 -10.546875 30.34375 -12.347656 30.34375 -15.953125 C 30.34375 -17.628906 29.769531 -18.914062 28.625 -19.8125 C 27.476562 -20.71875 25.820312 -21.171875 23.65625 -21.171875 Z M 19.125 -21.171875 "/></g></g></g><g fill="#000000" fill-opacity="1"><g transform="translate(143.896563, 241.755335)"><g/></g></g><g fill="#000000" fill-opacity="1"><g transform="translate(162.295274, 241.755335)"><g/></g></g><g fill="#000000" fill-opacity="1"><g transform="translate(180.693984, 241.755335)"><g/></g></g><g fill="#000000" fill-opacity="1"><g transform="translate(199.091872, 241.755335)"><g><path d="M 41.515625 0 L 2.109375 0 L 2.109375 -8.4375 L 24 -39.53125 L 2.625 -39.53125 L 2.625 -50.578125 L 40.953125 -50.578125 L 40.953125 -42.171875 L 19.0625 -11.03125 L 41.515625 -11.03125 Z M 41.515625 0 "/></g></g></g><g fill="#000000" fill-opacity="1"><g transform="translate(242.35651, 241.755335)"><g><path d="M 41.515625 0 L 2.109375 0 L 2.109375 -8.4375 L 24 -39.53125 L 2.625 -39.53125 L 2.625 -50.578125 L 40.953125 -50.578125 L 40.953125 -42.171875 L 19.0625 -11.03125 L 41.515625 -11.03125 Z M 41.515625 0 "/></g></g></g><path fill="#ff1616" d="M 179.417969 208.664062 C 181.09375 208.664062 182.457031 210.027344 182.457031 211.699219 L 182.457031 234.171875 C 182.457031 235.847656 181.09375 237.207031 179.417969 237.207031 C 177.738281 237.207031 176.375 235.847656 176.375 234.171875 L 176.375 211.699219 C 176.375 210.027344 177.738281 208.664062 179.417969 208.664062 Z M 178.011719 234.171875 C 178.011719 234.949219 178.640625 235.578125 179.417969 235.578125 C 180.191406 235.578125 180.820312 234.949219 180.820312 234.171875 L 180.820312 211.699219 C 180.820312 210.921875 180.191406 210.296875 179.417969 210.296875 C 178.640625 210.296875 178.011719 210.921875 178.011719 211.699219 Z M 178.011719 234.171875 " fill-opacity="1" fill-rule="nonzero"/><path fill="#ff1616" d="M 171.757812 208.664062 C 173.433594 208.664062 174.796875 210.027344 174.796875 211.699219 L 174.796875 234.171875 C 174.796875 235.847656 173.433594 237.207031 171.757812 237.207031 C 170.078125 237.207031 168.714844 235.847656 168.714844 234.171875 L 168.714844 211.699219 C 168.714844 210.027344 170.078125 208.664062 171.757812 208.664062 Z M 170.351562 234.171875 C 170.351562 234.949219 170.980469 235.578125 171.757812 235.578125 C 172.53125 235.578125 173.160156 234.949219 173.160156 234.171875 L 173.160156 211.699219 C 173.160156 210.921875 172.53125 210.296875 171.757812 210.296875 C 170.980469 210.296875 170.351562 210.921875 170.351562 211.699219 Z M 170.351562 234.171875 " fill-opacity="1" fill-rule="nonzero"/><path fill="#ff1616" d="M 164.097656 208.664062 C 165.773438 208.664062 167.136719 210.027344 167.136719 211.699219 L 167.136719 234.171875 C 167.136719 235.847656 165.773438 237.207031 164.097656 237.207031 C 162.421875 237.207031 161.054688 235.847656 161.054688 234.171875 L 161.054688 211.699219 C 161.054688 210.027344 162.417969 208.664062 164.097656 208.664062 Z M 162.691406 234.171875 C 162.691406 234.949219 163.320312 235.578125 164.097656 235.578125 C 164.871094 235.578125 165.5 234.949219 165.5 234.171875 L 165.5 211.699219 C 165.5 210.921875 164.871094 210.296875 164.097656 210.296875 C 163.320312 210.296875 162.691406 210.921875 162.691406 211.699219 Z M 162.691406 234.171875 " fill-opacity="1" fill-rule="nonzero"/><g clip-path="url(#id1)"><path fill="#ff1616" d="M 152.316406 207.011719 C 153.582031 207.011719 154.851562 207.167969 155.953125 207.496094 L 155.953125 204.355469 C 153.851562 203.019531 152.449219 200.679688 152.449219 198.015625 C 152.449219 193.871094 155.832031 190.5 159.984375 190.5 C 161.121094 190.5 162.226562 190.753906 163.234375 191.238281 C 165.085938 188.011719 168.546875 185.949219 172.378906 185.949219 C 176.65625 185.949219 180.457031 188.546875 182.082031 192.355469 C 183.101562 191.964844 184.183594 191.765625 185.292969 191.765625 C 190.253906 191.765625 194.296875 195.792969 194.296875 200.746094 C 194.296875 204.917969 191.429688 208.421875 187.558594 209.429688 L 187.558594 237.359375 C 187.558594 240.855469 184.707031 243.699219 181.203125 243.699219 L 162.3125 243.699219 C 158.804688 243.699219 155.953125 240.855469 155.953125 237.359375 L 155.953125 234.257812 C 155.589844 234.253906 155.179688 234.238281 154.722656 234.214844 C 154.144531 234.191406 153.492188 234.160156 152.789062 234.160156 C 152.304688 234.160156 151.847656 233.945312 151.535156 233.574219 C 151.535156 233.574219 149.800781 231.511719 149.160156 230.734375 C 145.511719 226.292969 145.40625 221.546875 145.40625 221.019531 L 145.40625 210.730469 C 145.40625 208.160156 148.875 207.011719 152.316406 207.011719 Z M 191.023438 200.75 C 191.023438 197.59375 188.453125 195.027344 185.292969 195.027344 C 184.125 195.027344 183 195.378906 182.039062 196.042969 C 181.585938 196.351562 181.007812 196.417969 180.5 196.214844 C 179.988281 196.007812 179.617188 195.5625 179.507812 195.023438 C 178.824219 191.660156 175.828125 189.214844 172.378906 189.214844 C 169.25 189.214844 166.480469 191.207031 165.488281 194.171875 C 165.3125 194.695312 164.882812 195.097656 164.351562 195.234375 C 163.816406 195.375 163.246094 195.234375 162.839844 194.863281 C 162.050781 194.152344 161.039062 193.761719 159.984375 193.761719 C 157.632812 193.761719 155.722656 195.671875 155.722656 198.015625 C 155.722656 200.359375 157.632812 202.269531 159.984375 202.269531 C 161.414062 202.269531 162.738281 201.558594 163.53125 200.371094 C 163.835938 199.914062 164.347656 199.644531 164.894531 199.644531 L 164.90625 199.644531 C 165.457031 199.644531 165.972656 199.929688 166.269531 200.390625 C 167.617188 202.476562 169.902344 203.726562 172.378906 203.726562 C 174.164062 203.726562 175.882812 203.066406 177.222656 201.871094 C 177.632812 201.503906 178.199219 201.367188 178.730469 201.507812 C 179.261719 201.648438 179.6875 202.046875 179.863281 202.566406 C 180.648438 204.898438 182.832031 206.46875 185.292969 206.46875 C 188.453125 206.46875 191.023438 203.902344 191.023438 200.75 Z M 159.222656 237.359375 C 159.222656 239.058594 160.609375 240.4375 162.3125 240.4375 L 181.199219 240.4375 C 182.902344 240.4375 184.289062 239.058594 184.289062 237.359375 L 184.289062 209.671875 C 181.554688 209.367188 179.136719 207.835938 177.6875 205.550781 C 176.085938 206.484375 174.257812 206.988281 172.378906 206.988281 C 169.488281 206.988281 166.777344 205.816406 164.8125 203.785156 C 163.472656 204.902344 161.773438 205.53125 159.984375 205.53125 C 159.726562 205.53125 159.476562 205.515625 159.222656 205.492188 Z M 148.675781 221.019531 C 148.675781 221.183594 148.710938 225.039062 151.6875 228.664062 C 152.109375 229.175781 153.003906 230.242188 153.558594 230.90625 C 154.03125 230.917969 154.46875 230.9375 154.871094 230.957031 C 155.273438 230.972656 155.632812 230.988281 155.949219 230.992188 L 155.949219 211.027344 C 155.554688 210.757812 154.335938 210.273438 152.3125 210.273438 C 150.289062 210.273438 149.070312 210.757812 148.675781 211.027344 Z M 148.675781 221.019531 " fill-opacity="1" fill-rule="nonzero"/></g><g fill="#000000" fill-opacity="1"><g transform="translate(69.230259, 270.776349)"><g><path d="M 3.335938 0 L 3.335938 -4.214844 L 7.644531 -4.214844 L 7.644531 -6.429688 L 3.335938 -6.429688 L 3.335938 -8.410156 L 8.105469 -8.410156 L 8.105469 -10.644531 L 0.835938 -10.644531 L 0.835938 0 Z M 3.335938 0 "/></g></g></g><g fill="#000000" fill-opacity="1"><g transform="translate(84.572917, 270.776349)"><g><path d="M 7.699219 -4.5625 C 8.636719 -5.089844 9.222656 -6.082031 9.222656 -7.433594 C 9.222656 -9.75 7.8125 -10.644531 5.859375 -10.644531 L 0.835938 -10.644531 L 0.835938 0 L 3.335938 0 L 3.335938 -4.101562 L 5.355469 -4.101562 L 6.90625 0 L 9.542969 0 Z M 5.511719 -8.410156 C 6.320312 -8.410156 6.75 -8.050781 6.75 -7.351562 C 6.75 -6.625 6.320312 -6.261719 5.511719 -6.261719 L 3.335938 -6.261719 L 3.335938 -8.410156 Z M 5.511719 -8.410156 "/></g></g></g><g fill="#000000" fill-opacity="1"><g transform="translate(101.337996, 270.776349)"><g><path d="M 8.105469 0 L 8.105469 -2.230469 L 3.335938 -2.230469 L 3.335938 -4.214844 L 7.644531 -4.214844 L 7.644531 -6.429688 L 3.335938 -6.429688 L 3.335938 -8.410156 L 8.105469 -8.410156 L 8.105469 -10.644531 L 0.835938 -10.644531 L 0.835938 0 Z M 8.105469 0 "/></g></g></g><g fill="#000000" fill-opacity="1"><g transform="translate(116.931668, 270.776349)"><g><path d="M 5.316406 0.238281 C 7.894531 0.238281 9.472656 -1.074219 9.472656 -3.167969 C 9.472656 -5.636719 7.238281 -6.136719 5.441406 -6.542969 C 4.226562 -6.820312 3.195312 -7.058594 3.195312 -7.824219 C 3.195312 -8.496094 3.890625 -8.773438 4.601562 -8.773438 C 5.648438 -8.773438 6.375 -8.230469 6.625 -7.324219 L 9.207031 -7.324219 C 8.871094 -9.695312 6.890625 -10.867188 4.660156 -10.867188 C 2.484375 -10.867188 0.710938 -9.820312 0.710938 -7.617188 C 0.710938 -5.273438 2.847656 -4.796875 4.632812 -4.394531 C 5.886719 -4.117188 6.960938 -3.878906 6.960938 -3.042969 C 6.960938 -2.203125 6.152344 -1.855469 5.300781 -1.855469 C 4.339844 -1.855469 3.375 -2.21875 3.011719 -3.613281 L 0.433594 -3.613281 C 0.628906 -0.628906 3.304688 0.238281 5.316406 0.238281 Z M 5.316406 0.238281 "/></g></g></g><g fill="#000000" fill-opacity="1"><g transform="translate(133.752537, 270.776349)"><g><path d="M 3.335938 0 L 3.335938 -4.199219 L 7.378906 -4.199219 L 7.378906 0 L 9.875 0 L 9.875 -10.644531 L 7.378906 -10.644531 L 7.378906 -6.429688 L 3.335938 -6.429688 L 3.335938 -10.644531 L 0.835938 -10.644531 L 0.835938 0 Z M 3.335938 0 "/></g></g></g><g fill="#000000" fill-opacity="1"><g transform="translate(151.382228, 270.776349)"><g/></g></g><g fill="#000000" fill-opacity="1"><g transform="translate(161.899794, 270.776349)"><g><path d="M 1.480469 0 C 3.851562 0 4.828125 -0.640625 4.828125 -3.042969 L 4.828125 -10.644531 L 2.316406 -10.644531 L 2.316406 -3.070312 C 2.316406 -2.457031 1.996094 -2.230469 1.480469 -2.230469 L 0.113281 -2.230469 L 0.113281 0 Z M 1.480469 0 "/></g></g></g><g fill="#000000" fill-opacity="1"><g transform="translate(174.397599, 270.776349)"><g><path d="M 2.679688 0 L 3.25 -1.910156 L 6.792969 -1.910156 L 7.367188 0 L 10.015625 0 L 6.375 -10.644531 L 3.667969 -10.644531 L 0.0273438 0 Z M 5.023438 -7.867188 L 6.136719 -4.074219 L 3.90625 -4.074219 Z M 5.023438 -7.867188 "/></g></g></g><g fill="#000000" fill-opacity="1"><g transform="translate(191.330025, 270.776349)"><g><path d="M 6.292969 0 L 9.933594 -10.644531 L 7.28125 -10.644531 L 4.9375 -2.804688 L 2.59375 -10.644531 L -0.0546875 -10.644531 L 3.585938 0 Z M 6.292969 0 "/></g></g></g><g fill="#000000" fill-opacity="1"><g transform="translate(208.095103, 270.776349)"><g><path d="M 2.679688 0 L 3.25 -1.910156 L 6.792969 -1.910156 L 7.367188 0 L 10.015625 0 L 6.375 -10.644531 L 3.667969 -10.644531 L 0.0273438 0 Z M 5.023438 -7.867188 L 6.136719 -4.074219 L 3.90625 -4.074219 Z M 5.023438 -7.867188 "/></g></g></g><g fill="#000000" fill-opacity="1"><g transform="translate(225.027529, 270.776349)"><g><path d="M 5.316406 0.238281 C 7.894531 0.238281 9.472656 -1.074219 9.472656 -3.167969 C 9.472656 -5.636719 7.238281 -6.136719 5.441406 -6.542969 C 4.226562 -6.820312 3.195312 -7.058594 3.195312 -7.824219 C 3.195312 -8.496094 3.890625 -8.773438 4.601562 -8.773438 C 5.648438 -8.773438 6.375 -8.230469 6.625 -7.324219 L 9.207031 -7.324219 C 8.871094 -9.695312 6.890625 -10.867188 4.660156 -10.867188 C 2.484375 -10.867188 0.710938 -9.820312 0.710938 -7.617188 C 0.710938 -5.273438 2.847656 -4.796875 4.632812 -4.394531 C 5.886719 -4.117188 6.960938 -3.878906 6.960938 -3.042969 C 6.960938 -2.203125 6.152344 -1.855469 5.300781 -1.855469 C 4.339844 -1.855469 3.375 -2.21875 3.011719 -3.613281 L 0.433594 -3.613281 C 0.628906 -0.628906 3.304688 0.238281 5.316406 0.238281 Z M 5.316406 0.238281 "/></g></g></g><g fill="#000000" fill-opacity="1"><g transform="translate(241.848397, 270.776349)"><g><path d="M 5.761719 0.238281 C 8.566406 0.238281 10.199219 -1.3125 10.476562 -3.613281 L 7.742188 -3.613281 C 7.574219 -2.496094 6.765625 -1.996094 5.707031 -1.996094 C 4.019531 -1.996094 3.082031 -3.304688 3.082031 -5.328125 C 3.082031 -7.335938 4.019531 -8.636719 5.707031 -8.636719 C 6.765625 -8.636719 7.589844 -8.132812 7.742188 -7.042969 L 10.476562 -7.042969 C 10.199219 -9.332031 8.566406 -10.867188 5.761719 -10.867188 C 2.121094 -10.867188 0.445312 -8.300781 0.445312 -5.328125 C 0.445312 -2.359375 2.121094 0.238281 5.761719 0.238281 Z M 5.761719 0.238281 "/></g></g></g><g fill="#000000" fill-opacity="1"><g transform="translate(259.603595, 270.776349)"><g><path d="M 7.699219 -4.5625 C 8.636719 -5.089844 9.222656 -6.082031 9.222656 -7.433594 C 9.222656 -9.75 7.8125 -10.644531 5.859375 -10.644531 L 0.835938 -10.644531 L 0.835938 0 L 3.335938 0 L 3.335938 -4.101562 L 5.355469 -4.101562 L 6.90625 0 L 9.542969 0 Z M 5.511719 -8.410156 C 6.320312 -8.410156 6.75 -8.050781 6.75 -7.351562 C 6.75 -6.625 6.320312 -6.261719 5.511719 -6.261719 L 3.335938 -6.261719 L 3.335938 -8.410156 Z M 5.511719 -8.410156 "/></g></g></g><g fill="#000000" fill-opacity="1"><g transform="translate(276.368673, 270.776349)"><g><path d="M 3.335938 0 L 3.335938 -10.644531 L 0.835938 -10.644531 L 0.835938 0 Z M 3.335938 0 "/></g></g></g><g fill="#000000" fill-opacity="1"><g transform="translate(287.444059, 270.776349)"><g><path d="M 3.335938 0 L 3.335938 -4.101562 L 5.859375 -4.101562 C 7.8125 -4.101562 9.222656 -5.328125 9.222656 -7.433594 C 9.222656 -9.75 7.8125 -10.644531 5.859375 -10.644531 L 0.835938 -10.644531 L 0.835938 0 Z M 3.335938 -8.410156 L 5.511719 -8.410156 C 6.320312 -8.410156 6.75 -8.050781 6.75 -7.351562 C 6.75 -6.625 6.320312 -6.261719 5.511719 -6.261719 L 3.335938 -6.261719 Z M 3.335938 -8.410156 "/></g></g></g><g fill="#000000" fill-opacity="1"><g transform="translate(303.860493, 270.776349)"><g><path d="M 5.609375 0 L 5.609375 -8.410156 L 8.605469 -8.410156 L 8.605469 -10.644531 L 0.113281 -10.644531 L 0.113281 -8.410156 L 3.109375 -8.410156 L 3.109375 0 Z M 5.609375 0 "/></g></g></g><g fill="#ff1616" fill-opacity="1"><g transform="translate(36.119762, 170.535106)"><g><path d="M 27.78125 0 L 14.109375 0 L 14.109375 -39.40625 L 1.765625 -39.40625 L 1.765625 -50.578125 L 40.09375 -50.578125 L 40.09375 -39.40625 L 27.78125 -39.40625 Z M 27.78125 0 "/></g></g></g><g fill="#ff1616" fill-opacity="1"><g transform="translate(77.966454, 170.535106)"><g><path d="M 48.8125 0 L 35.078125 0 L 35.078125 -20.609375 L 19.203125 -20.609375 L 19.203125 0 L 5.46875 0 L 5.46875 -50.578125 L 19.203125 -50.578125 L 19.203125 -31.828125 L 35.078125 -31.828125 L 35.078125 -50.578125 L 48.8125 -50.578125 Z M 48.8125 0 "/></g></g></g><g fill="#ff1616" fill-opacity="1"><g transform="translate(132.228818, 170.535106)"><g><path d="M 35.484375 0 L 5.46875 0 L 5.46875 -50.578125 L 35.484375 -50.578125 L 35.484375 -39.609375 L 19.125 -39.609375 L 19.125 -31.65625 L 34.28125 -31.65625 L 34.28125 -20.6875 L 19.125 -20.6875 L 19.125 -11.140625 L 35.484375 -11.140625 Z M 35.484375 0 "/></g></g></g><g fill="#ff1616" fill-opacity="1"><g transform="translate(171.101282, 170.535106)"><g/></g></g><g fill="#ff1616" fill-opacity="1"><g transform="translate(189.499993, 170.535106)"><g><path d="M 18.921875 0 L 5.46875 0 L 5.46875 -50.578125 L 35.359375 -50.578125 L 35.359375 -39.609375 L 18.921875 -39.609375 L 18.921875 -29.953125 L 34.078125 -29.953125 L 34.078125 -18.984375 L 18.921875 -18.984375 Z M 18.921875 0 "/></g></g></g><g fill="#ff1616" fill-opacity="1"><g transform="translate(227.680777, 170.535106)"><g><path d="M 5.46875 0 L 5.46875 -50.578125 L 19.203125 -50.578125 L 19.203125 0 Z M 5.46875 0 "/></g></g></g><g fill="#ff1616" fill-opacity="1"><g transform="translate(252.3392, 170.535106)"><g><path d="M 41.515625 0 L 2.109375 0 L 2.109375 -8.4375 L 24 -39.53125 L 2.625 -39.53125 L 2.625 -50.578125 L 40.953125 -50.578125 L 40.953125 -42.171875 L 19.0625 -11.03125 L 41.515625 -11.03125 Z M 41.515625 0 "/></g></g></g><g fill="#ff1616" fill-opacity="1"><g transform="translate(295.603838, 170.535106)"><g><path d="M 41.515625 0 L 2.109375 0 L 2.109375 -8.4375 L 24 -39.53125 L 2.625 -39.53125 L 2.625 -50.578125 L 40.953125 -50.578125 L 40.953125 -42.171875 L 19.0625 -11.03125 L 41.515625 -11.03125 Z M 41.515625 0 "/></g></g></g></svg>